<svg xmlns="http://www.w3.org/2000/svg" width="54" height="54" viewBox="0 0 54 54">
    <defs>
        <clipPath id="nx09jxq2la">
            <path data-name="사각형 5995" transform="translate(-.25 -.25)" style="fill:none" d="M0 0h32v32H0z"/>
        </clipPath>
    </defs>
    <circle data-name="타원 94" cx="27" cy="27" r="27" style="fill:#fae300"/>
    <g data-name="그룹 12267">
        <g data-name="그룹 12266" transform="translate(11.25 11.25)" style="clip-path:url(#nx09jxq2la)">
            <path data-name="패스 18147" d="M29.848 32.463H2.615A2.623 2.623 0 0 1 0 29.848V2.615A2.623 2.623 0 0 1 2.615 0h27.233a2.623 2.623 0 0 1 2.615 2.615v27.233a2.623 2.623 0 0 1-2.615 2.615" transform="translate(-.45 -.513)" style="fill:#fae300"/>
            <path data-name="패스 18148" d="M68.008 77.59c-6.922 0-12.533 4.436-12.533 9.908 0 3.562 2.377 6.683 5.945 8.429-.262.979-.949 3.546-1.087 4.095-.17.682.25.672.525.489.215-.143 3.434-2.331 4.823-3.276a15.88 15.88 0 0 0 2.326.171c6.922 0 12.533-4.437 12.533-9.908s-5.611-9.908-12.532-9.908" transform="translate(-52.323 -73.065)" style="fill:#391b1b"/>
            <path data-name="패스 18149" d="M109.065 185.247H105.4a.623.623 0 1 0 0 1.247h1.191v4.39a.61.61 0 0 0 .608.608h.133a.609.609 0 0 0 .607-.608v-4.39h1.125a.623.623 0 1 0 0-1.247" transform="translate(-98.424 -173.732)" style="fill:#fae300"/>
            <path data-name="패스 18150" d="M262.466 189.055h-1.7v-4.484a.676.676 0 1 0-1.352 0v4.829a.663.663 0 0 0 .01.108.575.575 0 0 0-.01.108.565.565 0 0 0 .566.566h2.491a.566.566 0 0 0 0-1.132" transform="translate(-243.018 -172.467)" style="fill:#fae300"/>
            <path data-name="패스 18151" d="m325.529 189.26-1.9-2.494 1.716-1.717a.6.6 0 1 0-.842-.842l-2.124 2.124v-1.761a.676.676 0 1 0-1.352 0v4.982a.676.676 0 1 0 1.352 0v-1.537l.386-.386 1.8 2.357a.6.6 0 1 0 .967-.727" transform="translate(-300.634 -172.467)" style="fill:#fae300"/>
            <path data-name="패스 18152" d="m173.241 189.421-1.826-5-.006-.006a.9.9 0 0 0-.856-.526.872.872 0 0 0-.888.629.838.838 0 0 0-.035.082l-1.8 4.817a.606.606 0 1 0 1.143.4l.311-.887h2.5l.311.887a.606.606 0 1 0 1.143-.4m-3.557-1.618.84-2.4h.027l.839 2.394z" transform="translate(-157.355 -172.466)" style="fill:#fae300"/>
        </g>
    </g>
</svg>
