<svg xmlns="http://www.w3.org/2000/svg" width="54" height="54" viewBox="0 0 54 54">
    <defs>
        <clipPath id="gr8tjfikaa">
            <path data-name="사각형 5997" style="fill:none" d="M0 0h17.346v21.32H0z"/>
        </clipPath>
    </defs>
    <circle data-name="타원 95" cx="27" cy="27" r="27"/>
    <g data-name="그룹 12276">
        <g data-name="그룹 12275" style="clip-path:url(#gr8tjfikaa)" transform="translate(18.327 16.34)">
            <path data-name="패스 18155" d="M14.487 11.448A4.846 4.846 0 0 1 16.8 7.382a4.961 4.961 0 0 0-3.913-2.112c-1.644-.172-3.238.984-4.076.984-.854 0-2.143-.966-3.532-.938A5.2 5.2 0 0 0 .9 7.987c-1.894 3.278-.481 8.1 1.333 10.746.908 1.3 1.968 2.747 3.356 2.7 1.358-.056 1.865-.866 3.5-.866s2.1.866 3.516.833c1.458-.023 2.375-1.3 3.251-2.613a10.735 10.735 0 0 0 1.486-3.028 4.681 4.681 0 0 1-2.858-4.307" transform="translate(0 -.11)" style="fill:#fff"/>
            <path data-name="패스 18156" d="M12 3.418A4.772 4.772 0 0 0 13.09 0a4.856 4.856 0 0 0-3.141 1.625 4.54 4.54 0 0 0-1.12 3.291A4.013 4.013 0 0 0 12 3.418" transform="translate(-.185)" style="fill:#fff"/>
        </g>
    </g>
</svg>
