<svg xmlns="http://www.w3.org/2000/svg" width="98" height="22" viewBox="0 0 98 22">
    <path data-name="사각형 631" style="fill:none" d="M0 0h98v22H0z"/>
    <g data-name="그룹 943">
        <path data-name="패스 246" d="M172.371 152.546h5.954a2.4 2.4 0 1 0 0-4.8h-5.954a10.28 10.28 0 0 0 0 20.559h5.954a2.4 2.4 0 1 0 0-4.795h-5.954a5.484 5.484 0 0 1 0-10.969z" transform="translate(-161.097 -147.134)" style="fill:#ff2946"/>
    </g>
    <g data-name="그룹 944">
        <path data-name="패스 247" d="M223.535 158.942h-1.147l-1.708-9.23a2.4 2.4 0 0 0-2.358-1.961H208.1a2.4 2.4 0 0 0-2.358 1.961l-1.708 9.23h-1.147a1.511 1.511 0 0 0 0 3.023h1.017v3.948a2.4 2.4 0 1 0 4.795 0v-1.354h9.02v1.354a2.4 2.4 0 1 0 4.795 0v-3.948h1.017a1.511 1.511 0 0 0 0-3.023zm-7.207-6.4 1.183 6.4h-8.6l1.183-6.4z" transform="translate(-180.844 -147.134)" style="fill:#ff2946"/>
    </g>
    <path data-name="패스 248" d="M300.2 147.751a2.4 2.4 0 0 0-2.4 2.4v15.764a2.4 2.4 0 1 0 4.795 0v-15.767a2.4 2.4 0 0 0-2.395-2.397z" transform="translate(-229.304 -147.134)" style="fill:#ff2946"/>
    <path data-name="패스 249" d="M330.605 147.8h-13.839a2.4 2.4 0 1 0 0 4.795h4.52v13.367a2.4 2.4 0 0 0 4.795 0V152.6h4.524a2.4 2.4 0 1 0 0-4.795z" transform="translate(-237.633 -147.16)" style="fill:#ff2946"/>
    <path data-name="패스 250" d="M269.917 158.056H258.75v-5.51h11.167a2.4 2.4 0 1 0 0-4.795h-13.565a2.4 2.4 0 0 0-2.4 2.4v15.764a2.4 2.4 0 0 0 4.795 0v-3.061h11.167a2.4 2.4 0 1 0 0-4.795z" transform="translate(-207.268 -147.134)" style="fill:#ff2946"/>
</svg>
